# xmcd
#
# Track frame offsets:
#	225
#	18109
#	36609
#	54892
#	77205
#	101359
#	129923
#
# Disc length: 1936 seconds
#
# Revision: 1
# Processed by: cddbd v1.5.2PL0 Copyright (c) Steve Scherf et al.
# Submitted via: audiograbber 1.83.01
#
DISCID=4c078d07
DTITLE=Hacienda - Sabor (Maxi)
DYEAR=2000
DGENRE=Latin
TTITLE0=Sabor (Ralf Gum's Latin Flavour - Radio Edit)
TTITLE1=Sabor (Ralf Gum's House Mix - Radio Edit)
TTITLE2=Sabor (Aromabar RMX - CD Single)
TTITLE3=Sabor (Original Album)
TTITLE4=Sabor (DJ Matt's Dark Dub Version)
TTITLE5=Sabor (Hacienda's Club Mix)
TTITLE6=Sabor (Hacienda's Accoustic Version)
EXTD=
EXTT0=
EXTT1=
EXTT2=
EXTT3=
EXTT4=
EXTT5=
EXTT6=
PLAYORDER=
